<svg xmlns="http://www.w3.org/2000/svg" xmlns:xlink="http://www.w3.org/1999/xlink" width="1583.51" height="356.29" viewBox="0 0 1583.51 356.29"><defs><linearGradient id="b"><stop offset="0" style="stop-color:#000;stop-opacity:1"/></linearGradient><linearGradient xlink:href="#a" id="d" x1="109.63" x2="308.68" y1="296.68" y2="296.68" gradientTransform="translate(-18.27 -2.84)scale(.76899)" gradientUnits="userSpaceOnUse"/><linearGradient id="a"><stop offset="0" stop-color="#050" style="stop-color:#050;stop-opacity:1"/></linearGradient><linearGradient xlink:href="#a" id="e" x1="109.63" x2="308.68" y1="296.68" y2="296.68" gradientTransform="translate(-1.14 1.64)scale(.75458)" gradientUnits="userSpaceOnUse"/><linearGradient xlink:href="#b" id="c" gradientTransform="translate(-113.61 240.97)scale(.9852)" gradientUnits="userSpaceOnUse"/></defs><path d="M397.95 240.62c0-2.12.7-2.12 4.96-2.12 2.72 0 3.55.94 4.61 3.19 5.68 11.47 11.35 23.05 16.08 34.87.71 1.78 1.3 2.01 3.2 2.01 2.6 0 6.85-.23 9.45-.23 1.3 0 8.04.23 9.58.23.94 0 2.24 0 2.24-1.65v-2.01c0-1.54 0-1.66-.7-2.13-.48-.24-2.73-.83-3.32-1.06-2.12-.71-4.49-1.66-13.47-16.67A378 378 0 0 1 420.4 236c0-.35.59-.47 1.06-.59.6-.12 1.42-.35 2.72-.83 11.94-4.6 12.53-17.26 12.53-19.27a20.5 20.5 0 0 0-5.9-14.42c-2.37-2.48-6.75-5.91-17.62-5.91-4.02 0-17.74.47-21.28.47-4.97 0-12.54-.47-15.5-.47-1.17 0-1.65.35-1.65 1.9v2.36c0 1.65.48 2.12 3.2 2.71 2.83.6 4.37 1.54 4.73 2.96.47 2.13.47 18.56.47 22.23v19.27c0 6.5-.12 15.48-.24 20.45-.12 2.72-.7 3.78-4.96 4.73-2.49.59-3.2.83-3.2 2.72v2.36c0 1.18.24 1.9 1.54 1.9 2.13 0 12.3-.48 14.66-.48 2.13 0 11.82.47 13.71.47 1.42 0 1.66-.47 1.66-1.89v-2.36c0-1.66-.47-2.25-3.2-2.72-2.12-.47-4.25-1.3-4.72-2.96-.36-2-.47-18.8-.47-22.22zm0-29.67c.11-1.3.11-6.15.23-7.1.24-.94 1.54-.94 3.2-.94 2.12 0 6.85 0 9.92.83 9.46 2.48 9.46 12.06 9.46 12.88 0 2.72-.7 8.99-6.62 12.77-3.43 2.25-11.82 2.25-13.36 2.25-2.36 0-2.72-.36-2.72-2.6zm929.31 16.11c0-3.2.24-17.62.36-19.74.12-3.31.59-4.38 7.56-5.32 3.08-.48 3.55-1.07 3.55-2.37v-2.84c0-.94 0-2-1.9-2-2.36 0-11.1.47-14.3.47-4.6 0-13.6-.48-16.78-.48-1.3 0-1.66.36-1.66 1.9v2.36c0 1.66.47 2.13 3.07 2.72 2.96.59 4.5 1.54 4.73 2.96.48 2.12.48 18.56.48 22.22v19.27c0 6.5 0 15.49-.24 20.46-.12 2.71-.71 3.78-4.97 4.72-2.48.6-3.07.83-3.07 2.72v2.37c0 1.18.24 1.89 1.54 1.89s3.07-.36 18.32-.36c11.23 0 13.95.24 16.55.36 7.45.23 16.44.59 17.38.59 1.77 0 3.08-.12 3.43-2.6l1.77-16.55c.12-1.3.12-1.9-1.77-1.9h-2.84c-1.06 0-1.89.24-2.36 2.73-.47 2.95-1.9 6.14-3.67 7.56-2.12 1.77-3.42 1.77-15.6 1.77-6.27 0-8.87-.35-9.22-4.73-.36-4.01-.36-20.92-.36-25.77zm121.63-24.71c.12-.59.36-2.48-1.53-3.43-3.2-1.77-13.84-5.55-28.85-5.55-9.81 0-27.2 1.53-39.84 17.02-5.91 7.21-9.1 16.2-9.1 26.84 0 16.78 9.45 42.44 46.34 42.44 13.6 0 21.75-2.96 27.43-5.44 3.07-1.3 4.02-2.48 4.49-5.32l1.06-6.5c.12-.47.24-1.18.24-1.42 0-1.06-1.42-1.06-4.37-1.06-1.66 0-2.01 0-3.79 2-4.73 5.33-14.42 9.46-23.88 9.46-16.2 0-31.21-15.25-31.21-35 0-20.2 14.19-34.75 32.87-34.75 4.49 0 12.05.95 17.73 4.5 2.84 1.77 3.55 4.01 4.14 5.9.94 2.84 1.06 3.2 2.95 3.2h2.13c1.9 0 1.9-.48 2.13-2.84zm-189.46 24.71c0-3.2.24-17.62.35-19.74.12-3.31.6-4.38 7.57-5.32 3.07-.48 3.55-1.07 3.55-2.37v-2.84c0-.94 0-2-1.9-2-2.36 0-11.1.47-14.3.47-4.61 0-13.6-.48-16.79-.48-1.3 0-1.65.36-1.65 1.9v2.36c0 1.66.47 2.13 3.07 2.72 2.96.59 4.5 1.54 4.73 2.96.47 2.12.47 18.56.47 22.22v19.27c0 6.5 0 15.49-.23 20.46-.12 2.71-.71 3.78-4.97 4.72-2.48.6-3.07.83-3.07 2.72v2.37c0 1.18.23 1.89 1.54 1.89s3.07-.36 18.32-.36c11.23 0 13.95.24 16.55.36 7.45.23 16.43.59 17.38.59 1.77 0 3.07-.12 3.43-2.6l1.77-16.55c.12-1.3.12-1.9-1.77-1.9h-2.84c-1.06 0-1.9.24-2.36 2.73-.48 2.95-1.9 6.14-3.67 7.56-2.13 1.77-3.43 1.77-15.6 1.77-6.27 0-8.87-.35-9.23-4.73-.35-4.01-.35-20.92-.35-25.77zm-200.64-97.99c0 6.5-.12 15.49-.36 20.45-.12 2.72-.7 3.78-4.96 4.73-2.49.6-3.08.83-3.08 2.72v2.36c0 1.19.24 1.9 1.54 1.9 1.06 0 3.55-.12 6.26-.24 2.84-.12 5.8-.24 7.69-.24 4.97 0 8.51.24 11.94.48s6.86.47 11.35.47c16.79 0 26.72-12.53 26.72-24.24 0-3.42-.83-8.98-5.09-13.95-3.3-3.78-8.15-6.26-15.48-6.85-2.84-.36-3.2-.36-3.2-.95s.36-.71 3.2-1.3c3.07-.83 15.25-3.78 15.25-17.97 0-5.2-1.66-9.81-4.97-13.24-5.55-5.91-12.77-5.91-17.38-5.91-3.42 0-7.68.23-11.7.35-4.02.24-7.92.48-10.76.48-2.24 0-5.08-.12-7.68-.24s-4.85-.24-6.03-.24c-1.3 0-1.66.36-1.66 1.9v2.36c0 1.65.48 2.13 3.08 2.72 2.95.59 4.49 1.53 4.73 2.95.47 2.13.59 18.56.59 22.23zm14.77-32.75c0-1.53 0-9.34.36-10.05.47-.7.7-.7 8.04-.7 12.06 0 13.24 9.57 13.24 13.12 0 6.73-4.38 12.05-9.7 13.71-2 .6-6.5.83-8.5.83-3.32 0-3.44-.12-3.44-2.01zm.12 26.37c0-1.54.12-2.25 3.43-2.25 8.87 0 11.47.35 14.3 1.65 3.08 1.42 8.75 5.8 8.75 14.78 0 6.74-2.95 11.59-7.44 14.43-3.55 2.24-7.69 2.6-11.83 2.6-7.09 0-7.33-1.78-7.33-7.69v-9.7zM687.81 226.97l.12-19.27c0-3.9.24-4.02 2.95-4.02h7.8c4.97 0 7.22 0 8.05 6.26.23 2.01.7 2.25 2.36 2.25h2.01c1.66 0 1.66-.48 1.77-2.49l.71-12.88c.12-1.18-.23-1.78-1.77-1.78-4.85 0-18.09.48-30.03.48-17.14 0-29.44-.48-32.86-.48-1.3 0-1.66.48-1.66 2.25l.7 12.89c.13 1.42.25 2 1.78 2h2.01c1.07 0 1.42 0 1.66-.35.35-.47.83-3.19.94-3.78 1.19-4.38 2.96-4.38 7.22-4.38h7.56c3.67 0 3.67 0 3.78 3.2v39.6c0 3.9 0 14.54-.23 20.45 0 2.37-.47 4.02-5.56 4.73-3.2.48-3.78.83-3.78 2.72v2.37c0 1.18.23 1.89 1.54 1.89 2.36 0 13-.47 16.43-.47 5.8 0 6.97.11 14.19.47h.23c1.3 0 1.78-.47 1.78-1.9v-2.36c0-1.65-.48-2.36-3.79-2.72-1.42-.11-4.96-.7-5.44-3.07-.47-1.9-.47-18.8-.47-22.1zm519.84 38.42c-2.4 0-6.83 2.2-6.83 7.11 0 1.54.48 2.7 1.73 4.72 1.44 2.2 1.73 3.17 1.73 4.32 0 1.25-.48 2.7-1.83 5.68-.38.86-2.88 4.8-2.88 5.1 0 .38.48.57.67.66.58.3 2.21.87 2.6.87.96 0 6.34-5.67 8.07-7.98 1.83-2.5 4.52-7.02 4.52-12.02 0-4.62-2.98-8.46-7.79-8.46m-478.28-13.72c0 5.38-.1 12.6-.29 16.73-.1 2.11-.57 2.98-4.04 3.84-2.02.39-2.5.68-2.5 2.21v1.83c0 1.06.2 1.64 1.25 1.64 1.93 0 5.1-.39 14.9-.39 3.09 0 13.28.29 16.07.39 3.27.1 10.19.48 11.63.48 1.25 0 2.21-.1 2.5-2.7l1.54-11.63c.1-.96-.2-1.44-1.54-1.44h-1.83c-1.25 0-2.01.1-2.78 3.07-1.35 5.39-4.72 5.39-15.97 5.39-4.23 0-6.44 0-6.73-3.65-.19-2.22-.19-7.31-.19-9.72 0-1.44.1-8.84.2-9.61.19-.96 1.24-1.06 2.97-1.06 3.56 0 8.95 0 12.4.1.97.1 5.68.38 6.07.38 1.44 0 1.44-.48 1.63-2.11l.48-3.85c.2-1.25.2-1.92-.67-1.92-.68 0-2.12.19-2.5.19-4.81.2-4.9.2-7.4.2-1.83 0-12.12 0-12.7-.49-.48-.48-.48-.67-.48-10.1 0-2.5 0-3.07.1-8.46 0-3.07 0-3.46.38-3.75.29-.29 6.44-.29 7.4-.29 1.45 0 6.93 0 7.89.2 2.02.38 2.89 2.3 3.17 4.13.48 2.7.87 2.7 2.31 2.7h1.35c.77 0 1.63 0 1.63-1.45l.58-10.77c0-.67-.2-1.83-1.73-1.83-2.12 0-5.48.48-18.08.48-11.15 0-20.77-.48-22.5-.48-1.06 0-1.35.3-1.35 1.54v1.93c0 1.34.39 1.73 2.5 2.2 2.4.49 3.66 1.26 3.85 2.41.38 1.73.48 15.1.48 18.08zm70-4.62c0-1.73.57-1.73 4.03-1.73 2.21 0 2.89.77 3.75 2.6 4.62 9.32 9.23 18.75 13.08 28.36.58 1.44 1.06 1.64 2.6 1.64 2.11 0 5.57-.2 7.69-.2 1.06 0 6.54.2 7.79.2.77 0 1.82 0 1.82-1.35v-1.63c0-1.25 0-1.35-.57-1.73-.39-.2-2.22-.68-2.7-.87-1.73-.58-3.65-1.35-10.96-13.56a308 308 0 0 1-8.27-15.48c0-.29.48-.38.87-.48.48-.1 1.15-.29 2.21-.67 9.71-3.75 10.2-14.04 10.2-15.68 0-3.94-1.45-8.36-4.82-11.73-1.92-2.02-5.48-4.8-14.32-4.8-3.27 0-14.43.38-17.31.38-4.04 0-10.2-.39-12.6-.39-.96 0-1.34.3-1.34 1.54v1.93c0 1.34.38 1.73 2.6 2.2 2.3.49 3.55 1.26 3.84 2.41.38 1.73.38 15.1.38 18.08v15.67c0 5.29-.1 12.6-.19 16.64-.1 2.2-.58 3.07-4.04 3.84-2.02.48-2.6.68-2.6 2.21v1.93c0 .96.2 1.54 1.26 1.54 1.73 0 10-.39 11.92-.39 1.73 0 9.62.39 11.15.39 1.16 0 1.35-.39 1.35-1.54v-1.93c0-1.34-.38-1.82-2.6-2.2-1.73-.4-3.46-1.06-3.84-2.41-.29-1.64-.39-15.29-.39-18.08zm0-24.13c.09-1.06.09-5 .19-5.77.19-.77 1.25-.77 2.6-.77 1.72 0 5.57 0 8.07.67 7.7 2.02 7.7 9.8 7.7 10.48 0 2.21-.59 7.3-5.4 10.39-2.78 1.82-9.6 1.82-10.86 1.82-1.92 0-2.21-.29-2.21-2.11zm136.04 52.02c0-1.54 0-2.02-2.2-2.4-.68-.1-3.47-.68-3.95-2.41-.48-1.83-1.35-24.9-1.73-32.8-.1-2.2-.67-16.63-.67-17.5 0-1.53 0-2.97 4.52-3.74 2.78-.58 2.78-1.25 2.78-2.6v-2.11c0-.68-.19-1.45-1.53-1.45-1.73 0-7.4.39-12.22.39-4.32 0-7.3-.39-9.03-.39-.48 0-.87.1-1.06.48a62 62 0 0 0-1.64 4.62c-1.25 4.23-13.27 35.48-15.1 39.71-1.34 3.08-1.92 4.71-2.01 4.71-.2 0-.87-1.82-1.92-4.52-1.16-2.98-12.98-32.6-16.93-43.55-.48-1.35-.86-1.45-1.63-1.45-2.6 0-5.1.39-8.66.39-4.13 0-10.1-.39-12.02-.39-.57 0-1.53 0-1.53 1.64v1.92c0 1.44 0 1.92 1.92 2.31 5.1 1.06 5.1 2.11 5.1 4.04 0 2.11-.68 15.1-.87 17.98-.67 12.98-.67 14.42-1.54 27.79-.29 4.9-.29 5.67-4.04 6.73-1.92.48-2.5.67-2.5 1.92v2.12c0 1.54.87 1.54 1.35 1.54 1.35 0 5.38-.39 9.33-.39 3.17 0 7.88.39 9.32.39s1.44-.58 1.44-1.54v-1.73c0-1.64-.67-2.02-2.02-2.31-4.61-1.06-4.61-1.73-4.61-5.87 0-1.73.29-8.84.39-11.15.57-10.58.67-13.27 1.15-27.5.1-2.12.2-5.2.48-5.2.29 0 1.15 2.31 1.25 2.7.58 2.3 15.2 38.46 19.13 48.17 2.12 5.2 2.31 5.77 2.99 5.77.57 0 1.63-.29 3.17-.77 1.44-.48 1.63-.57 2.21-2.11.87-2.8 17.11-42.21 20.29-50.2.58-1.44 1.44-3.75 1.73-3.75.38 0 .38 1.74.38 2.12 0 5 1.35 36.54 1.35 43.46 0 2.89-.77 3.46-3.17 4.04-2.8.77-3.08.87-3.08 2.89v1.44c0 1.54.96 1.54 1.35 1.54 1.73 0 8.07-.39 11.92-.39s8.46.39 10.2.39c1.34 0 1.91-.3 1.91-1.54zm18.46-23.18c0 5.29-.1 12.6-.29 16.64-.1 2.2-.58 3.07-4.04 3.84-2.02.48-2.5.68-2.5 2.21v1.93c0 .96.2 1.54 1.25 1.54 1.73 0 7.4-.39 11.83-.39 3.65 0 9.71.39 11.15.39 1.16 0 1.44-.39 1.44-1.54v-1.93c0-1.34-.48-1.82-2.6-2.2-1.82-.4-3.55-1.07-3.84-2.41-.38-1.64-.38-15.29-.38-18.08V236.1c0-6.35.1-14.04.19-16.64.1-2.2.58-3.07 4.04-3.84 2.02-.48 2.6-.68 2.6-2.21v-1.93c0-.86-.2-1.54-1.26-1.54-1.73 0-8.27.39-11.92.39-4.42 0-9.42-.39-11.15-.39-1.06 0-1.35.3-1.35 1.54v1.93c0 1.34.39 1.73 2.5 2.2 2.4.49 3.65 1.26 3.85 2.41.38 1.73.48 15.1.48 18.08zm30.86 24.9c0 .78.28 1.26 1.34 1.26 1.64 0 6.44-.39 10.58-.39 2.6 0 6.63.39 8.27.39.86 0 1.34-.3 1.34-1.64v-1.73c0-.77 0-1.92-2.02-2.3-2.3-.4-4.23-.78-4.52-2.7-.19-.96-.19-7.88-.19-9.42l-.1-10.2c-.09-12.3-.19-13.55-.47-24.9 0-.29 0-1.06.1-1.06.18 0 .67.68.76.77 5.39 6.93 40 46.25 47.21 55.1 1.25 1.44 1.25 1.44 1.64 1.44.2 0 .48-.1.67-.2l1.35-1.24c1.73-1.25 1.92-1.44 1.92-2.4 0-.77-.2-4.14-.2-4.9.1-2.6-.09-15.68-.09-18.66 0-4.81.1-18.18.3-25.77.09-2.6.09-4.81.09-7.4 0-3.76.96-4.81 4.13-5.4 2.12-.28 2.12-.95 2.12-2.4v-1.53c0-1.16-.68-1.45-1.25-1.45-1.93 0-6.54.39-9.9.39s-6.45-.39-8.37-.39c-1.16 0-1.64.39-1.64 1.45v2.02c0 .86.1 1.53 1.25 1.82 3.18 1.06 4.52 1.45 4.9 3.08.3 1.63.58 23.94.68 27.7 0 1.72.29 10 .29 11.82 0 .38 0 .77-.2.77-.09 0-.57-.58-.67-.67-10.48-12.12-20.96-24.14-31.34-36.25-3.85-4.52-4.33-5.2-8.18-10.1-1.15-1.54-1.34-1.64-2.02-1.64-1.25 0-5.28.39-8.75.39-2.69 0-6.25-.39-7.69-.39-.77 0-1.34.1-1.34 1.64v2.02c0 .96.1 1.73 2.98 2.3 1.73.39 2.88.87 3.27 2.8.48 2.4.48 14.13.48 17.4v10c0 5.67-.3 14.8-.3 20.48 0 4.62-.67 5.1-3.17 5.67-3.27.68-3.27 1.35-3.27 2.4zm102.58-1.82c0-1.35 0-1.73-2.78-2.6-2.98-.86-4.14-1.25-4.14-2.79 0-.57.29-1.34.39-1.63l3.46-9.04c.48-1.15 1.05-2.88 1.73-3.08.77-.1 8.94-.1 10.77-.1 1.54 0 11.15 0 11.73.3.67.57 4.23 12.6 4.23 13.46 0 2.02-.96 2.3-4.9 3.36-1.74.48-2.12.68-2.12 2.31v1.35c0 .96 0 1.54.96 1.54 1.92 0 11.25-.39 13.37-.39 1.63 0 8.55.39 10.19.39 1.35 0 1.44-.58 1.44-1.54v-1.35c0-1.15 0-1.73-1.15-2.02-2.89-.67-3.27-.86-4.23-3.36-3.75-9.9-16.16-47.22-19.43-57.31-.86-2.7-1.15-3.27-2.2-3.27-.4 0-6.55.67-7.5.77-2.41.19-2.41.48-3.28 2.6a328 328 0 0 1-4.61 12.4c-7.02 18.27-7.89 20.2-15.2 37.88-3.75 8.95-3.75 8.95-6.63 9.52-2.12.48-2.12.87-2.12 2.6v1.54c0 .86.1 1.54 1.16 1.54h.2c1.34 0 2.68-.39 9.51-.39 3.17 0 8.37.39 9.04.39 1.25 0 2.11 0 2.11-1.73zm2.7-25.67c-1.54 0-2.22 0-2.22-.97 0-.28.77-2.4.97-2.98l8.07-21.63c.48-1.25.68-1.73.96-1.73.49 0 1.16 2.3 1.35 2.98l6.54 20.96c.2.58.58 1.92.58 2.6 0 .77-.3.77-2.89.77zm68.26-12.98c0-2.6.2-14.33.29-16.06.1-2.7.48-3.56 6.15-4.33 2.5-.38 2.89-.87 2.89-1.92v-2.31c0-.77 0-1.64-1.54-1.64-1.93 0-9.04.39-11.64.39-3.75 0-11.06-.39-13.65-.39-1.06 0-1.35.3-1.35 1.54v1.93c0 1.34.39 1.73 2.5 2.2 2.4.49 3.66 1.26 3.85 2.41.38 1.73.38 15.1.38 18.08v15.67c0 5.29 0 12.6-.19 16.64-.1 2.2-.58 3.07-4.04 3.84-2.02.48-2.5.68-2.5 2.21v1.93c0 .96.2 1.54 1.25 1.54s2.5-.3 14.9-.3c9.14 0 11.35.2 13.47.3 6.06.19 13.36.48 14.13.48 1.44 0 2.5-.1 2.8-2.12l1.43-13.46c.1-1.06.1-1.54-1.44-1.54h-2.3c-.87 0-1.55.2-1.93 2.21-.38 2.4-1.54 5-2.98 6.16-1.73 1.44-2.79 1.44-12.7 1.44-5.09 0-7.2-.29-7.5-3.85-.28-3.27-.28-17.02-.28-20.96zM474 274.83c0-1.35 0-1.73-2.79-2.6-2.98-.86-4.13-1.25-4.13-2.79 0-.57.28-1.34.38-1.63l3.46-9.04c.48-1.15 1.06-2.88 1.73-3.08.77-.1 8.94-.1 10.77-.1 1.54 0 11.16 0 11.73.3.68.57 4.23 12.6 4.23 13.46 0 2.02-.96 2.3-4.9 3.36-1.73.48-2.12.68-2.12 2.31v1.35c0 .96 0 1.54.97 1.54 1.92 0 11.25-.39 13.36-.39 1.64 0 8.56.39 10.2.39 1.34 0 1.44-.58 1.44-1.54v-1.35c0-1.15 0-1.73-1.16-2.02-2.88-.67-3.27-.86-4.23-3.36-3.75-9.9-16.15-47.22-19.42-57.31-.87-2.7-1.16-3.27-2.21-3.27-.39 0-6.54.67-7.5.77-2.4.19-2.4.48-3.27 2.6a327 327 0 0 1-4.62 12.4c-7.02 18.27-7.88 20.2-15.19 37.88-3.75 8.95-3.75 8.95-6.64 9.52-2.11.48-2.11.87-2.11 2.6v1.54c0 .86.1 1.54 1.15 1.54h.2c1.34 0 2.69-.39 9.52-.39 3.17 0 8.36.39 9.03.39 1.25 0 2.12 0 2.12-1.73zm2.7-25.67c-1.55 0-2.22 0-2.22-.97 0-.28.77-2.4.96-2.98l8.08-21.63c.48-1.25.67-1.73.96-1.73.48 0 1.15 2.3 1.35 2.98l6.53 20.96c.2.58.58 1.92.58 2.6 0 .77-.29.77-2.88.77zm56.56 2.6c0 5.28-.1 12.59-.3 16.63-.09 2.2-.57 3.07-4.03 3.84-2.02.48-2.5.68-2.5 2.21v1.93c0 .96.2 1.54 1.25 1.54 1.73 0 7.4-.39 11.83-.39 3.65 0 9.7.39 11.15.39 1.15 0 1.44-.39 1.44-1.54v-1.93c0-1.34-.48-1.82-2.6-2.2-1.82-.4-3.55-1.07-3.84-2.41-.38-1.64-.38-15.29-.38-18.08V236.1c0-6.35.1-14.04.19-16.64.1-2.2.57-3.07 4.04-3.84 2.02-.48 2.6-.68 2.6-2.21v-1.93c0-.86-.2-1.54-1.26-1.54-1.73 0-8.27.39-11.92.39-4.42 0-9.42-.39-11.15-.39-1.06 0-1.35.3-1.35 1.54v1.93c0 1.34.38 1.73 2.5 2.2 2.4.49 3.65 1.26 3.85 2.41.38 1.73.48 15.1.48 18.08zm49.35-15.59c0-2.6.2-14.32.29-16.05.1-2.7.48-3.56 6.15-4.33 2.5-.38 2.89-.87 2.89-1.92v-2.31c0-.77 0-1.64-1.54-1.64-1.92 0-9.04.39-11.64.39-3.75 0-11.05-.39-13.65-.39-1.06 0-1.35.3-1.35 1.54v1.93c0 1.34.39 1.73 2.5 2.2 2.4.49 3.66 1.26 3.85 2.41.38 1.73.38 15.1.38 18.08v15.67c0 5.29 0 12.6-.19 16.64-.1 2.2-.57 3.07-4.04 3.84-2.02.48-2.5.68-2.5 2.21v1.93c0 .96.2 1.54 1.25 1.54 1.06 0 2.5-.3 14.9-.3 9.14 0 11.35.2 13.47.3 6.06.19 13.37.48 14.13.48 1.45 0 2.5-.1 2.8-2.12l1.44-13.46c.1-1.06.1-1.54-1.45-1.54H608c-.87 0-1.54.2-1.93 2.21-.38 2.4-1.54 5-2.98 6.16-1.73 1.44-2.79 1.44-12.7 1.44-5.09 0-7.2-.29-7.5-3.85-.28-3.27-.28-17.02-.28-20.96zm562.95-78.82c0-1.35 0-1.73-2.8-2.6-2.97-.86-4.13-1.25-4.13-2.79 0-.57.3-1.34.39-1.63l3.46-9.04c.48-1.15 1.06-2.88 1.73-3.08.77-.1 8.94-.1 10.77-.1 1.54 0 11.15 0 11.73.3.67.57 4.23 12.6 4.23 13.46 0 2.02-.96 2.3-4.9 3.36-1.73.48-2.12.68-2.12 2.31v1.35c0 .96 0 1.54.96 1.54 1.93 0 11.25-.39 13.37-.39 1.63 0 8.56.39 10.2.39 1.34 0 1.43-.58 1.43-1.54v-1.35c0-1.15 0-1.73-1.15-2.02-2.88-.67-3.27-.86-4.23-3.36-3.75-9.9-16.16-47.22-19.42-57.31-.87-2.7-1.16-3.27-2.22-3.27-.38 0-6.53.67-7.5.77-2.4.19-2.4.48-3.27 2.6a328 328 0 0 1-4.61 12.4c-7.02 18.27-7.89 20.19-15.2 37.88-3.74 8.95-3.74 8.95-6.63 9.52-2.11.48-2.11.87-2.11 2.6v1.54c0 .86.1 1.54 1.15 1.54h.2c1.34 0 2.69-.39 9.51-.39 3.18 0 8.37.39 9.04.39 1.25 0 2.12 0 2.12-1.73zm2.69-25.68c-1.54 0-2.21 0-2.21-.96 0-.28.77-2.4.96-2.98l8.08-21.63c.48-1.25.67-1.73.96-1.73.48 0 1.15 2.3 1.34 2.98l6.54 20.96c.2.58.58 1.92.58 2.6 0 .77-.29.77-2.89.77zm66.77-2.11c0-1.73.58-1.73 4.04-1.73 2.21 0 2.88.77 3.75 2.6 4.61 9.32 9.23 18.74 13.08 28.36.57 1.44 1.05 1.63 2.6 1.63 2.1 0 5.57-.19 7.68-.19 1.06 0 6.54.2 7.8.2.76 0 1.82 0 1.82-1.35v-1.64c0-1.25 0-1.34-.58-1.73-.38-.19-2.2-.67-2.69-.86-1.73-.58-3.65-1.35-10.96-13.56a307 307 0 0 1-8.27-15.48c0-.29.48-.39.86-.48.49-.1 1.16-.29 2.22-.68 9.7-3.75 10.19-14.03 10.19-15.67a16.7 16.7 0 0 0-4.8-11.73c-1.93-2.02-5.49-4.8-14.34-4.8-3.27 0-14.42.38-17.3.38-4.04 0-10.2-.39-12.6-.39-.96 0-1.35.3-1.35 1.54v1.92c0 1.35.39 1.73 2.6 2.22 2.3.48 3.56 1.25 3.85 2.4.38 1.73.38 15.1.38 18.08v15.67c0 5.29-.1 12.6-.2 16.64-.09 2.2-.57 3.07-4.03 3.84-2.02.48-2.6.67-2.6 2.21v1.93c0 .96.2 1.53 1.25 1.53 1.73 0 10-.38 11.93-.38 1.73 0 9.61.39 11.15.39 1.15 0 1.35-.39 1.35-1.54v-1.93c0-1.34-.39-1.82-2.6-2.2-1.73-.4-3.46-1.07-3.85-2.41-.28-1.64-.38-15.3-.38-18.08zm0-24.14c.1-1.05.1-5 .2-5.77.18-.77 1.24-.77 2.59-.77 1.73 0 5.58 0 8.08.68 7.69 2.02 7.69 9.8 7.69 10.48 0 2.21-.58 7.3-5.39 10.38-2.79 1.83-9.61 1.83-10.86 1.83-1.93 0-2.21-.29-2.21-2.11zm109.85-7.2c.1-1.07.2-1.64-1.44-2.6-1.93-1.06-12.12-4.33-23.56-4.33-24.14 0-39.71 14.9-39.71 35.96 0 22.8 17.79 34.23 37.4 34.23 5.67 0 14.52-.86 24.71-4.13 5.2-1.64 5.2-1.83 5.2-2.98 0-.96-.3-5.68-.3-6.73 0-1.64.2-9.81.2-10.48.2-1.73.67-2.7 4.33-3.47 1.92-.38 1.92-.86 1.92-2.2v-1.74c0-.57-.2-1.44-1.54-1.44-1.63 0-5.1.38-10.77.38-1.83 0-10-.38-11.54-.38-1.25 0-1.44.29-1.44 1.44v2.21c0 .97 0 1.45 1.92 1.93.2.1 3.47.86 4.14 1.82.58.97.58 7.6.58 13.08 0 2.02-.2 2.7-2.12 3.46a48 48 0 0 1-14.14 2.7c-15.1 0-25.48-14.14-25.48-29.43 0-16.06 12.31-27.98 26.64-27.98 4.13 0 9.52 1.06 13.08 2.6 1.82.86 4.32 2.3 5.38 6.15.48 2.12.96 2.12 2.21 2.12h1.83c1.63 0 1.73-.1 1.83-1.73zm25.42 35.95c0 5.39-.1 12.6-.28 16.73-.1 2.12-.58 2.99-4.04 3.85-2.02.39-2.5.68-2.5 2.21v1.83c0 1.06.19 1.64 1.25 1.64 1.92 0 5.1-.39 14.9-.39 3.08 0 13.27.29 16.06.39 3.27.1 10.2.48 11.63.48 1.25 0 2.22-.1 2.5-2.7l1.54-11.63c.1-.96-.19-1.44-1.54-1.44H1388c-1.25 0-2.02.1-2.8 3.07-1.34 5.39-4.7 5.39-15.95 5.39-4.23 0-6.45 0-6.73-3.66-.2-2.2-.2-7.3-.2-9.7 0-1.45.1-8.85.2-9.62.19-.97 1.25-1.06 2.98-1.06 3.55 0 8.94 0 12.4.1.96.1 5.67.38 6.06.38 1.44 0 1.44-.48 1.63-2.12l.48-3.84c.2-1.25.2-1.93-.67-1.93-.67 0-2.11.2-2.5.2-4.8.19-4.9.19-7.4.19-1.83 0-12.12 0-12.7-.48-.48-.48-.48-.67-.48-10.1 0-2.5 0-3.07.1-8.46 0-3.08 0-3.46.38-3.75.3-.29 6.45-.29 7.4-.29 1.45 0 6.93 0 7.9.2 2.01.38 2.88 2.3 3.17 4.13.48 2.7.86 2.7 2.3 2.7h1.35c.77 0 1.63 0 1.63-1.45l.58-10.77c0-.67-.19-1.83-1.73-1.83-2.11 0-5.48.48-18.08.48-11.15 0-20.77-.48-22.5-.48-1.05 0-1.34.3-1.34 1.54v1.92c0 1.35.38 1.73 2.5 2.22 2.4.48 3.65 1.25 3.84 2.4.39 1.73.48 15.1.48 18.08zm127-17.98c0 .97.2 1.25 2.5 1.93 2.03.57 4.05 1.15 4.05 5.48 0 4.61-3.75 13.84-5.2 13.84-.48 0-2.11-1.82-3.07-2.88l-13.46-15.29c-7.89-8.94-10.3-11.73-10.3-15.86a6.8 6.8 0 0 1 6.74-6.64c3.46 0 6.83 2.7 6.83 7.3 0 3.47-2.6 6.26-2.8 6.45-1.34 1.35-1.63 1.44-1.63 1.83 0 .38 1.35 2.2 2.31 2.2.87 0 12.98-4.8 12.98-13.45 0-6.73-6.92-9.9-15.2-9.9-10.76 0-19.32 5.86-19.32 15.47a18.3 18.3 0 0 0 2.6 9.14c.29.58 2.4 3.36 2.4 3.65 0 .48-.77.96-.86 1.06-4.9 3.08-15 9.52-15 21.54 0 11.73 10.1 19.33 21.92 19.33 10.77 0 17.21-5.58 19.9-7.89.96-.77 2.12-1.73 2.5-1.73.3 0 .58.2 2.8 2.21 6.43 6.06 8.36 7.4 11.82 7.4 4.33 0 13.94-4.6 13.94-6.24 0-.39 0-3.08-1.06-3.08-.38 0-2.4.29-2.88.29-5.29 0-8.27-2.6-13.08-6.73-3.27-2.8-3.56-3.08-3.56-3.85 0-.48.3-.96.48-1.25a147 147 0 0 0 9.72-17.21c1.92-4.14 2.3-4.23 6.63-5.48.96-.3 1.25-.58 1.25-1.64v-1.73c0-1.05-.29-1.44-1.54-1.44-1.92 0-3.65.29-11.25.29-2.4 0-8.36-.29-9.61-.29-.96 0-1.54.2-1.54 1.44zm-34.8 19.62c0-7.4 6.54-11.83 7.12-11.83.67 0 1.15.48 5 5 4.42 5.2 9.8 11.25 12.69 14.23.77.87 3.46 3.75 3.46 4.33 0 .87-4.9 5.67-12.02 5.67-3.08 0-6.54-.67-10.96-5.1-4.04-4.13-5.29-8.17-5.29-12.3m-972.14-1.26c0 5.29-.1 12.6-.28 16.63-.1 2.22-.58 3.08-4.04 3.85-2.02.48-2.5.67-2.5 2.21v1.92c0 .97.19 1.54 1.25 1.54 1.73 0 7.4-.38 11.82-.38 3.66 0 9.72.38 11.16.38 1.15 0 1.44-.38 1.44-1.54v-1.92c0-1.34-.48-1.83-2.6-2.21-1.82-.38-3.55-1.06-3.84-2.4-.39-1.64-.39-15.3-.39-18.08v-15.67c0-6.35.1-14.04.2-16.64.1-2.21.57-3.08 4.03-3.85 2.02-.48 2.6-.67 2.6-2.2v-1.93c0-.87-.2-1.54-1.25-1.54-1.73 0-8.27.39-11.92.39-4.43 0-9.43-.39-11.16-.39-1.05 0-1.34.29-1.34 1.54v1.92c0 1.35.38 1.73 2.5 2.21 2.4.48 3.65 1.25 3.84 2.4.39 1.74.48 15.1.48 18.08zm29.37 24.9c0 .77.3 1.25 1.35 1.25 1.63 0 6.44-.38 10.57-.38 2.6 0 6.64.38 8.27.38.87 0 1.35-.29 1.35-1.63v-1.73c0-.77 0-1.93-2.02-2.31-2.3-.38-4.23-.77-4.52-2.7-.19-.95-.19-7.88-.19-9.42l-.1-10.19c-.1-12.3-.19-13.56-.48-24.9 0-.3 0-1.06.1-1.06.2 0 .67.67.77.77 5.38 6.92 40 46.25 47.21 55.1 1.25 1.44 1.25 1.44 1.63 1.44.2 0 .48-.1.68-.2l1.34-1.24c1.73-1.25 1.93-1.45 1.93-2.4 0-.78-.2-4.14-.2-4.91.1-2.6-.1-15.67-.1-18.66 0-4.8.1-18.17.3-25.77.1-2.6.1-4.8.1-7.4 0-3.75.95-4.8 4.13-5.38 2.11-.3 2.11-.97 2.11-2.4v-1.55c0-1.15-.67-1.44-1.25-1.44-1.92 0-6.54.39-9.9.39s-6.44-.39-8.37-.39c-1.15 0-1.63.39-1.63 1.44v2.02c0 .87.1 1.54 1.25 1.83 3.17 1.06 4.52 1.44 4.9 3.08.3 1.63.58 23.94.68 27.69 0 1.73.28 10 .28 11.83 0 .38 0 .77-.19.77-.1 0-.57-.58-.67-.68-10.48-12.11-20.96-24.13-31.35-36.25-3.84-4.52-4.32-5.19-8.17-10.1-1.15-1.53-1.35-1.63-2.02-1.63-1.25 0-5.29.39-8.75.39-2.7 0-6.25-.39-7.7-.39-.76 0-1.34.1-1.34 1.64v2.02c0 .96.1 1.73 2.98 2.3 1.73.39 2.89.87 3.27 2.8.48 2.4.48 14.13.48 17.4v10c0 5.67-.29 14.8-.29 20.48 0 4.61-.67 5.1-3.17 5.67-3.27.67-3.27 1.35-3.27 2.4zM646.88 98.9c.1-.48.29-2.02-1.25-2.8-2.6-1.44-11.25-4.51-23.46-4.51-7.98 0-22.12 1.25-32.4 13.84-4.81 5.87-7.41 13.18-7.41 21.83 0 13.65 7.7 34.52 37.7 34.52 11.05 0 17.69-2.4 22.3-4.42 2.5-1.06 3.27-2.02 3.65-4.33l.87-5.29c.1-.38.2-.96.2-1.15 0-.87-1.16-.87-3.57-.87-1.34 0-1.63 0-3.07 1.64-3.85 4.32-11.73 7.69-19.43 7.69-13.17 0-25.38-12.4-25.38-28.46 0-16.45 11.54-28.27 26.73-28.27 3.66 0 9.8.77 14.42 3.65 2.31 1.44 2.89 3.27 3.37 4.81.77 2.3.87 2.6 2.4 2.6h1.73c1.54 0 1.54-.39 1.74-2.31zm17.35 35.67c0 5.29-.1 12.6-.29 16.63-.1 2.21-.58 3.08-4.04 3.85-2.02.48-2.5.67-2.5 2.21v1.92c0 .97.2 1.54 1.25 1.54 1.73 0 7.4-.38 11.83-.38 3.65 0 9.71.38 11.15.38 1.16 0 1.44-.38 1.44-1.54v-1.92c0-1.34-.48-1.83-2.6-2.21-1.82-.38-3.55-1.06-3.84-2.4-.38-1.64-.38-15.3-.38-18.08v-15.68c0-6.34.1-14.03.19-16.63.1-2.21.58-3.08 4.04-3.85 2.02-.48 2.6-.67 2.6-2.2v-1.93c0-.87-.2-1.54-1.26-1.54-1.73 0-8.27.39-11.92.39-4.42 0-9.42-.39-11.15-.39-1.06 0-1.35.29-1.35 1.54v1.92c0 1.35.39 1.73 2.5 2.21 2.4.48 3.65 1.25 3.85 2.4.38 1.74.48 15.1.48 18.08zm29.37 24.9c0 .77.28 1.25 1.34 1.25 1.64 0 6.44-.38 10.58-.38 2.6 0 6.63.38 8.27.38.86 0 1.34-.29 1.34-1.63v-1.73c0-.77 0-1.93-2.01-2.31-2.31-.38-4.23-.77-4.52-2.7-.2-.95-.2-7.88-.2-9.42l-.1-10.19c-.09-12.3-.18-13.56-.47-24.9 0-.3 0-1.06.1-1.06.19 0 .67.67.76.77 5.39 6.92 40 46.25 47.21 55.1 1.25 1.44 1.25 1.44 1.64 1.44.2 0 .48-.1.67-.2l1.35-1.24c1.73-1.25 1.92-1.45 1.92-2.4 0-.78-.2-4.14-.2-4.91.1-2.6-.09-15.68-.09-18.66 0-4.8.1-18.17.3-25.77.09-2.6.09-4.8.09-7.4 0-3.75.96-4.8 4.13-5.38 2.12-.3 2.12-.97 2.12-2.4v-1.55c0-1.15-.68-1.44-1.25-1.44-1.93 0-6.54.39-9.9.39s-6.45-.39-8.37-.39c-1.16 0-1.64.39-1.64 1.44v2.02c0 .87.1 1.54 1.25 1.83 3.18 1.06 4.52 1.44 4.9 3.08.3 1.63.58 23.94.68 27.69 0 1.73.29 10 .29 11.83 0 .38 0 .77-.2.77-.09 0-.57-.58-.67-.68-10.48-12.11-20.96-24.13-31.34-36.25-3.85-4.52-4.33-5.19-8.18-10.1-1.15-1.53-1.34-1.63-2.02-1.63-1.25 0-5.28.39-8.75.39-2.69 0-6.25-.39-7.69-.39-.77 0-1.34.1-1.34 1.64v2.02c0 .96.1 1.73 2.98 2.3 1.73.39 2.88.87 3.27 2.8.48 2.4.48 14.13.48 17.4v10c0 5.67-.3 14.8-.3 20.48 0 4.61-.66 5.1-3.16 5.67-3.27.67-3.27 1.35-3.27 2.4zm83.21 0c0 .77.29 1.25 1.35 1.25 1.63 0 6.44-.38 10.57-.38 2.6 0 6.64.38 8.27.38.87 0 1.35-.29 1.35-1.63v-1.73c0-.77 0-1.93-2.02-2.31-2.3-.38-4.23-.77-4.52-2.7-.2-.95-.2-7.88-.2-9.42l-.09-10.19c-.1-12.3-.2-13.56-.48-24.9 0-.3 0-1.06.1-1.06.19 0 .67.67.77.77 5.38 6.92 40 46.25 47.2 55.1 1.26 1.44 1.26 1.44 1.64 1.44.2 0 .48-.1.68-.2l1.34-1.24c1.73-1.25 1.92-1.45 1.92-2.4 0-.78-.19-4.14-.19-4.91.1-2.6-.1-15.68-.1-18.66 0-4.8.1-18.17.3-25.77.1-2.6.1-4.8.1-7.4 0-3.75.95-4.8 4.13-5.38 2.11-.3 2.11-.97 2.11-2.4v-1.55c0-1.15-.67-1.44-1.25-1.44-1.92 0-6.54.39-9.9.39s-6.45-.39-8.37-.39c-1.15 0-1.63.39-1.63 1.44v2.02c0 .87.1 1.54 1.25 1.83 3.17 1.06 4.52 1.44 4.9 3.08.29 1.63.58 23.94.67 27.69 0 1.73.3 10 .3 11.83 0 .38 0 .77-.2.77-.1 0-.58-.58-.67-.68-10.48-12.11-20.96-24.13-31.35-36.25-3.85-4.52-4.33-5.19-8.17-10.1-1.16-1.53-1.35-1.63-2.02-1.63-1.25 0-5.29.39-8.75.39-2.7 0-6.25-.39-7.7-.39-.76 0-1.34.1-1.34 1.64v2.02c0 .96.1 1.73 2.98 2.3 1.73.39 2.89.87 3.27 2.8.48 2.4.48 14.13.48 17.4v10c0 5.67-.29 14.8-.29 20.48 0 4.61-.67 5.1-3.17 5.67-3.27.67-3.27 1.35-3.27 2.4zm101.1-1.82c0-1.35 0-1.73-2.79-2.6-2.98-.87-4.13-1.25-4.13-2.79 0-.58.28-1.34.38-1.63l3.46-9.04c.48-1.16 1.06-2.89 1.73-3.08.77-.1 8.95-.1 10.77-.1 1.54 0 11.16 0 11.73.3.68.57 4.23 12.59 4.23 13.46 0 2.02-.96 2.3-4.9 3.36-1.73.48-2.12.67-2.12 2.3v1.35c0 .97 0 1.54.97 1.54 1.92 0 11.25-.38 13.36-.38 1.64 0 8.56.38 10.2.38 1.34 0 1.44-.57 1.44-1.54v-1.34c0-1.16 0-1.73-1.16-2.02-2.88-.67-3.27-.87-4.23-3.37-3.75-9.9-16.15-47.2-19.42-57.3-.87-2.7-1.16-3.28-2.21-3.28-.39 0-6.54.68-7.5.77-2.4.2-2.4.48-3.27 2.6a327 327 0 0 1-4.62 12.4c-7.02 18.27-7.88 20.2-15.2 37.89-3.74 8.94-3.74 8.94-6.62 9.52-2.12.48-2.12.87-2.12 2.6v1.53c0 .87.1 1.54 1.15 1.54h.2c1.34 0 2.69-.38 9.52-.38 3.17 0 8.36.38 9.03.38 1.25 0 2.12 0 2.12-1.73zm2.7-25.68c-1.55 0-2.22 0-2.22-.96 0-.29.77-2.4.96-2.98l8.08-21.64c.48-1.25.67-1.73.96-1.73.48 0 1.15 2.31 1.35 2.98l6.53 20.97c.2.57.58 1.92.58 2.6 0 .76-.29.76-2.88.76zm76.19-13.27.1-15.67c0-3.17.18-3.27 2.4-3.27h6.34c4.04 0 5.87 0 6.54 5.1.2 1.63.58 1.82 1.92 1.82h1.64c1.35 0 1.35-.38 1.44-2.02l.58-10.48c.1-.96-.2-1.44-1.44-1.44-3.95 0-14.72.39-24.43.39-13.94 0-23.94-.39-26.73-.39-1.06 0-1.34.39-1.34 1.83l.57 10.48c.1 1.15.2 1.63 1.44 1.63h1.64c.86 0 1.15 0 1.35-.29.28-.38.67-2.6.77-3.07.96-3.56 2.4-3.56 5.86-3.56h6.15c2.98 0 2.98 0 3.08 2.6v32.2c0 3.18 0 11.84-.2 16.64 0 1.93-.38 3.27-4.51 3.85-2.6.38-3.08.67-3.08 2.21v1.92c0 .97.2 1.54 1.25 1.54 1.93 0 10.58-.38 13.37-.38 4.7 0 5.67.1 11.54.38h.19c1.06 0 1.44-.38 1.44-1.54v-1.92c0-1.34-.38-1.92-3.08-2.21-1.15-.1-4.03-.58-4.42-2.5-.38-1.54-.38-15.29-.38-17.98zm35.71 15.87c0 5.29-.1 12.6-.29 16.63-.1 2.21-.58 3.08-4.04 3.85-2.02.48-2.5.67-2.5 2.21v1.92c0 .97.2 1.54 1.25 1.54 1.73 0 7.4-.38 11.83-.38 3.65 0 9.71.38 11.15.38 1.16 0 1.45-.38 1.45-1.54v-1.92c0-1.34-.48-1.83-2.6-2.21-1.83-.38-3.56-1.06-3.85-2.4-.38-1.64-.38-15.3-.38-18.08v-15.68c0-6.34.1-14.03.2-16.63.09-2.21.57-3.08 4.03-3.85 2.02-.48 2.6-.67 2.6-2.2v-1.93c0-.87-.2-1.54-1.25-1.54-1.73 0-8.27.39-11.93.39-4.42 0-9.42-.39-11.15-.39-1.06 0-1.35.29-1.35 1.54v1.92c0 1.35.39 1.73 2.5 2.21 2.4.48 3.66 1.25 3.85 2.4.38 1.74.48 15.1.48 18.08zM452.52 84.95c.12-.6.36-2.49-1.54-3.43-3.19-1.77-13.83-5.56-28.84-5.56-9.82 0-27.2 1.54-39.84 17.03-5.92 7.2-9.1 16.2-9.1 26.83 0 16.8 9.45 42.45 46.34 42.45 13.6 0 21.75-2.96 27.42-5.44 3.08-1.3 4.02-2.48 4.5-5.32l1.06-6.5c.12-.48.24-1.19.24-1.42 0-1.07-1.42-1.07-4.38-1.07-1.65 0-2 0-3.78 2.01-4.73 5.32-14.42 9.46-23.88 9.46-16.2 0-31.21-15.25-31.21-35 0-20.21 14.18-34.75 32.86-34.75 4.5 0 12.06.94 17.74 4.5 2.83 1.76 3.54 4.01 4.13 5.9.95 2.84 1.07 3.2 2.96 3.2h2.13c1.89 0 1.89-.48 2.13-2.84z" style="font-weight:500;font-size:118.224px;line-height:0;font-family:&quot;ITC Mendoza Roman Std&quot;;-inkscape-font-specification:&quot;ITC Mendoza Roman Std Medium&quot;;letter-spacing:.305413px;fill:url(#c);stroke-width:1.27189"/><path fill="url(#d)" d="M81.57 196.62a53 53 0 0 0 1.87 7.42h49.47l4.03-7.42zm58.75 0-4.1 7.42h1.66l4.02-7.42zm4.93 0-4.07 7.42h10.55l3.08-7.42zm12.5 0-3.13 7.42h2.24l3.07-7.42zm4.96 0-3.09 7.42h70.51q1.2-3.92 1.64-7.42zM84.4 206.74a67 67 0 0 0 3.13 6.96h40.14l3.78-6.96zm50.34 0-3.84 6.96h1.73l3.78-6.96zm4.95 0-3.82 6.96h11.85l2.89-6.96zm13.8 0-2.94 6.96h2.3l2.88-6.96zm5 0-2.9 6.96h70.62a66 66 0 0 0 3.01-6.96zm-69.45 9.73a77 77 0 0 0 4.64 7.1h28.63l3.86-7.1zm40.33 0-3.91 7.1h1.82l3.85-7.1zm4.99 0-3.9 7.1h13.16l2.95-7.1zm15.02 0-2.99 7.1h2.37l2.94-7.1zm5.07 0-2.96 7.1h68.77a77 77 0 0 0 4.49-7.1zm-58.7 9.8a82 82 0 0 0 6.77 7.46h14.28l4.05-7.46zm28.22 0-4.11 7.46h1.9l4.05-7.46zm5 0-4.09 7.46h14.52l3.1-7.46zm16.28 0-3.14 7.46h2.44l3.1-7.46zm5.12 0-3.1 7.46h64.42a81 81 0 0 0 6.57-7.46zm-44.94 10.16a83 83 0 0 0 6.92 5.5l2.98-5.5zm12.94 0-3.85 6.98h1.99l3.79-6.98zm5.03 0-3.83 6.98h15.81l2.9-6.98zm17.57 0-2.94 6.98h2.5l2.9-6.98zm5.17 0-2.9 6.98h56.75a79 79 0 0 0 8.88-6.98zm-27.28 9.68a82 82 0 0 0 12.9 6.03l2.5-6.03zm18.03 0-2.87 6.81q1.13.38 2.28.72l3.12-7.53zm5.22 0-3.41 8.2.35.1h35.72a75 75 0 0 0 20.93-8.3zm-28.94-101.1v9.37h59.54zm-31.6 49.22h11.75l6.35-28.1h8.89v-6.98H97.29v-4.6h10.95v-11.88l5.15.07 76.63 11.8v4.92l-77.17-.16v6.99l10 .32 6.99 27.62h44.93l-10.16-24.92 68.43-.16c-6.4-37.72-32.82-65.26-78.43-66.85-34.66 1.1-83.85 30.66-73.03 91.93zm75.05-105.88a91.45 91.45 0 0 0-91.45 91.46 91.45 91.45 0 0 0 91.45 91.45 91.45 91.45 0 0 0 91.45-91.45 91.45 91.45 0 0 0-91.45-91.46m0 9.9a81.56 81.56 0 0 1 81.57 81.56 81.56 81.56 0 0 1-81.57 81.56 81.56 81.56 0 0 1-81.56-81.56 81.56 81.56 0 0 1 81.56-81.57m0-21.08A102.64 102.64 0 0 0 54 179.8a102.64 102.64 0 0 0 102.63 102.64A102.64 102.64 0 0 0 259.26 179.8 102.64 102.64 0 0 0 156.62 77.16m0 8.07a94.57 94.57 0 0 1 94.57 94.57 94.57 94.57 0 0 1-94.57 94.57 94.57 94.57 0 0 1-94.57-94.57 94.57 94.57 0 0 1 94.57-94.57m-.61-83.77-20.8 74.11a106 106 0 0 1 21.41-2.17 106 106 0 0 1 21.4 2.17zm104.85 156.95a106 106 0 0 1 2.17 21.39 106 106 0 0 1-1.99 20.48v.92l53.86-20.27zm-208.52.27-53.39 22.25 53.41 20.1a106 106 0 0 1-2.14-21.23 106 106 0 0 1 2.12-21.12m125.7 125.35a106 106 0 0 1-21.41 2.17 106 106 0 0 1-21.4-2.17l22.01 74.1z" style="display:inline;fill:url(#e);stroke-width:.754579"/></svg>